<?xml version="1.0" standalone="no"?>
<!DOCTYPE svg PUBLIC "-//W3C//DTD SVG 20010904//EN"
 "http://www.w3.org/TR/2001/REC-SVG-20010904/DTD/svg10.dtd">
<svg version="1.0" xmlns="http://www.w3.org/2000/svg"
 width="512.000000pt" height="512.000000pt" viewBox="0 0 512.000000 512.000000"
 preserveAspectRatio="xMidYMid meet">
<metadata>
Created by potrace 1.14, written by Peter Selinger 2001-2017
</metadata>
<g transform="translate(0.000000,512.000000) scale(0.100000,-0.100000)"
fill="#000000" stroke="none">
<path d="M3406 4369 c-61 -15 -141 -65 -190 -120 -62 -69 -89 -143 -90 -244
-1 -102 21 -167 86 -252 216 -287 333 -547 388 -866 91 -536 -40 -1050 -384
-1507 -98 -131 -120 -262 -67 -402 76 -197 320 -292 514 -200 78 37 116 73
204 192 396 537 577 1202 508 1868 -50 475 -227 933 -508 1312 -89 120 -126
155 -206 193 -51 24 -80 31 -140 33 -42 2 -94 -1 -115 -7z"/>
<path d="M2133 3956 c-158 -51 -262 -187 -271 -351 -5 -106 17 -168 106 -293
117 -164 171 -276 218 -452 36 -132 44 -355 19 -497 -34 -191 -102 -357 -206
-507 -30 -43 -67 -97 -82 -119 -94 -140 -67 -361 59 -476 159 -147 392 -142
541 11 137 142 287 417 372 682 196 611 81 1297 -305 1818 -72 96 -108 127
-192 166 -69 31 -192 40 -259 18z"/>
<path d="M906 3526 c-153 -65 -241 -197 -239 -361 1 -91 22 -148 92 -254 99
-147 128 -250 116 -401 -7 -91 -46 -206 -91 -270 -95 -135 -114 -183 -114
-290 0 -109 31 -182 109 -261 86 -86 151 -113 271 -113 72 0 94 4 145 27 85
40 120 69 186 160 110 150 187 325 235 532 27 114 27 423 0 545 -38 174 -118
360 -215 497 -66 94 -119 144 -189 179 -48 23 -72 28 -152 31 -83 3 -102 1
-154 -21z"/>
</g>
</svg>
